<?xml version="1.0" encoding="utf-8"?>
<!-- Generator: Adobe Illustrator 16.0.0, SVG Export Plug-In . SVG Version: 6.00 Build 0)  -->
<svg version="1.2" baseProfile="tiny" id="Layer_1" xmlns="http://www.w3.org/2000/svg" xmlns:xlink="http://www.w3.org/1999/xlink"
	 x="0px" y="0px" width="1000px" height="1000px" viewBox="0 0 1000 1000" xml:space="preserve">
<g>
	<rect x="91.917" y="456.99" fill="#1D252C" width="82.555" height="81.647"/>
	<path fill="#FFC82E" d="M260.79,492.813l-7.14-2.204l-74.376-22.587l-0.132-0.65l-1.428-82.554c0,0-0.131-3.117-0.65-5.063
		c-0.388-1.949-2.076-3.116-4.023-3.638c-2.075-0.257-4.933,1.562-5.452,2.339c-0.521,0.778-47.769,69.573-47.769,69.573
		l-1.165,1.686c0,0-76.584-23.232-79.047-24.013c-2.339-0.779-5.064-0.779-5.064-0.779c-1.817,0-3.375,1.688-4.155,3.245
		c-0.521,1.817,0,4.025,0.777,5.583l50.884,68.407l-47.506,68.925c-1.428,2.339-2.596,5.19-1.817,7.79
		c0.909,2.075,3.504,3.502,5.841,2.981l81.774-28.555l45.173,60.228l7.527,9.345c1.559,1.167,3.635,1.298,5.19,0.649
		c1.949-1.037,2.858-2.855,3.247-5.062l-1.429-83.982l-0.131-2.205l67.238-24.014c7.009-2.468,11.683-4.154,12.072-4.282
		c1.559-0.651,5.191-2.985,5.062-6.752C264.163,495.282,261.697,493.202,260.79,492.813z M164.866,519.296
		c-0.65,1.165-1.949,1.557-3.248,0.905c-1.685-1.818-4.023,0.393-4.023,0.393c-11.94,6.361-17.78,10.383-29.723,7.787
		c-12.333-3.504-21.158-15.576-23.756-25.312c-0.777-2.597-7.397,0-4.672-5.065c1.559-0.779,2.857-1.04,4.412-1.685
		c2.858-0.39,5.711-5.584,6.75-0.259c-0.65,2.335-2.594,2.335-2.335,4.802c4.674,10.772,16.092,20.38,29.723,20.38
		c6.621-0.128,13.241-2.077,18.821-5.84c1.429-2.209-1.427-5.065,2.337-6.101c2.466,1.039,1.95,3.374,3.504,5.19
		C163.047,516.83,165.775,516.699,164.866,519.296z M143.578,499.175c0.777,1.039,2.725,4.023-2.339,4.801
		c-5.321,0.133-11.032-2.466-14.147-5.971c-3.114-3.245,0.777-4.673,3.503-4.543C135.66,493.981,140.074,494.763,143.578,499.175z
		 M110.479,473.344c4.023-1.56,6.229-3.766,13.242-1.56c2.204,1.039,2.983,1.687,5.063,3.246c0.52,0.39,2.205,1.686,2.205,3.114
		c0,1.168-0.39,2.208-1.299,3.245c-1.165,1.43-2.982,1.43-4.542,1.04c-2.983-0.259-4.282-4.023-7.525-2.594
		c-2.339,0.519-4.803,1.037-6.881-0.39c-1.167-0.778-1.949-2.076-2.208-3.506C108.791,474.772,109.309,474.124,110.479,473.344z
		 M170.708,495.541c-1.041,0.909-2.47,1.556-3.767,1.556c-2.595-0.129-4.282-1.815-5.838-3.634c-1.818-2.983-4.935-0.651-7.66-2.208
		c-1.43-0.647-2.983-1.685-3.114-3.502c-0.131-1.299,0.131-2.466,0.775-3.375c0.78-1.167,2.858-1.299,3.637-1.299
		c2.466-0.13,3.635-0.13,5.972,0.259c7.006,2.338,7.657,5.321,9.864,8.955C171.227,493.592,171.227,494.373,170.708,495.541z"/>
	<g>
		<g>
			<path fill="#CF4037" d="M683.684,524.098c-6.098,4.676-17.265,7.791-28.035,8.828c-5.064,18.172-18.822,39.718-56.596,39.718
				c-14.02,0-26.867-6.23-29.074-17.001c-0.91,0.905-1.949,1.818-2.855,2.594c-9.479,7.918-21.678,14.538-31.414,14.538
				c-12.59,0-20.639-5.453-19.989-18.3c-9.997,8.567-23.883,18.3-35.825,18.3c-16.615,0-25.439-9.474-16.484-32.839
				c3.764-9.865,17.394-46.082,24.274-64.385c0.131-0.387-0.13-0.648-0.519-0.648c-0.39,0-10.774,0-14.8,0
				c-6.358,14.408-45.04,97.872-79.435,97.872c-11.162,0-18.822-4.284-19.862-14.282c-9.343,7.919-22.063,14.282-31.673,14.282
				c-7.267,0-17.651-1.562-22.063-13.112c-14.021,18.953-40.5,33.879-64.772,33.879c-22.976,0-57.762-6.62-57.762-54.258
				c0-48.675,41.276-130.32,114.614-130.32c32.189,0,43.613,16.484,43.613,28.167c0,9.865-5.321,17.391-10.773,20.379h-28.688
				c5.973-5.972,8.958-10.514,8.958-18.174c0-4.673-2.858-16.095-15.577-16.095c-40.887,0-75.543,81.387-75.543,112.41
				c0,29.077,9.606,39.977,28.945,40.24c16.484,0.257,41.02-12.723,55.297-35.308c3.113-28.948,28.426-86.838,84.371-86.838
				c11.682,0,19.727,2.074,26.608,5.969l-5.583,14.279c-4.411-1.43-10.904-2.987-19.469-2.987
				c-37.123,0-56.596,61.919-56.596,78.794c0,1.686,0,7.137,5.452,7.137c4.933,0,16.615-8.178,24.406-17.914
				c4.542-11.81,15.316-42.573,20.378-55.555h29.335c-15.836,41.408-23.753,64.514-25.181,68.148
				c-1.43,3.766-1.298,5.711,0.651,5.711c5.062,0,34.267-30.502,54.773-83.724c-3.764-1.299-6.358-4.023-6.358-9.734
				c0-11.163,8.955-26.221,21.416-26.221c9.734,0,10.125,12.2,6.748,20.249h26.479c6.103,0,17.392,2.983,10.515,20.899l0,0
				c-15.836,41.409-26.09,69.057-27.517,72.82c-1.429,3.766-1.298,5.711,0.649,5.711c4.415,0,23.235-14.019,32.451-22.848
				c9.218-24.4,39.201-103.191,44.001-115.264h29.336c-15.834,41.407-49.064,128.766-50.49,132.4
				c-1.431,3.766-1.299,5.711,0.648,5.711c2.596,0,9.217-3.115,18.561-11.164c9.35-8.047,55.818-75.025,64.903-90.993h15.186h11.294
				c0.131,9.864,3.766,49.845,3.766,56.336c0,2.076-0.131,4.933-0.393,8.438c9.479-0.78,15.059-1.818,22.068-5.323
				c6.492-3.245,8.701-1.948,8.57,1.167C688.486,517.863,686.668,521.764,683.684,524.098 M939.134,542.66
				c-5.973,6.098-28.817,29.981-48.288,29.981c-16.612,0-25.438-9.476-16.483-32.841c3.767-9.864,17.654-46.729,24.662-65.029
				c0,0-10.775,0-15.057,0c-12.334,32.449-35.179,49.715-65.552,55.814c-12.071,28.687-35.821,66.588-81.385,66.588
				c-13.499,0-41.537-8.045-41.537-30.373c0-20.901,21.287-39.72,91.77-44.781c0.39-0.905,38.293-99.686,38.293-99.686h-8.18
				c-40.366,0-65.157,28.425-65.157,60.487c0,7.009,2.724,14.797,4.802,17.782c-7.01,0-14.928,0-19.732,0
				c-6.618-4.281-12.459-12.202-12.459-23.234c0-34.136,40.366-67.497,94.237-67.497h31.799c0,0,0,0,0.133,0h13.757l-41.274,107.089
				c20.767-6.1,36.604-17.136,47.634-42.575c-5.451-0.779-9.604-3.248-9.604-10.516c0-11.163,8.955-26.221,21.418-26.221
				c9.732,0,10.125,12.2,6.749,20.249h26.481c6.096,0,17.39,2.983,10.514,20.899l0,0c-15.836,41.409-26.091,69.057-27.52,72.82
				c-1.431,3.76-1.298,5.711,0.648,5.711c5.194,0,27.908-18.176,36.345-27c6.361-6.618,8.178-2.594,8.178,1.949
				C944.326,535.65,941.471,540.32,939.134,542.66 M969.767,559.922c-0.649,7.01-7.009,12.853-14.017,12.853
				c-7.141,0-12.334-5.714-11.553-12.853c0.649-7.006,7.006-12.85,14.021-12.85C965.224,547.07,970.417,552.785,969.767,559.922
				 M611.773,533.701c-10.517,0.26-22.197,6.361-22.197,19.343c0,3.763,2.987,8.175,9.218,8.175
				c14.019,0,21.806-12.846,26.091-27.776C620.859,533.442,616.963,533.572,611.773,533.701 M629.038,477.497
				c-8.959,13.631-20.382,30.634-31.804,45.953c4.676-1.168,9.736-1.949,15.059-2.076c3.376-0.131,9.086-0.259,15.186-0.388
				c1.56-9.087,1.951-17.916,1.951-23.888C629.557,493.334,629.297,486.063,629.038,477.497 M723.92,566.154
				c0,10.901,7.53,16.611,15.836,16.744c20.249,0.519,32.065-23.883,42.839-48.677C748.454,537.338,723.92,546.424,723.92,566.154
				 M612.813,428.299c1.559-1.037,7.008-7.396,7.008-14.666c0-2.854-1.688-8.435-2.727-10.383c0,0,7.658-0.389,12.07-0.389
				c1.814,0,5.19,0.389,5.19,0.389c2.466,4.413,1.427,15.836-3.245,21.937c-4.152,5.452-9.216,9.085-14.797,9.085
				c-3.115,0-4.676-1.166-4.676-3.375C611.643,430.249,611.643,429.081,612.813,428.299"/>
			<path fill="#CF4037" d="M951.726,426.747c0,4.672-3.637,8.435-8.438,8.435s-8.565-3.634-8.565-8.435
				c0-4.543,3.764-8.31,8.565-8.31C947.963,418.437,951.726,422.072,951.726,426.747 M936.798,426.747
				c0,3.633,2.726,6.616,6.489,6.616c3.637,0,6.361-2.983,6.361-6.616c0-3.637-2.725-6.622-6.361-6.622
				C939.521,420.125,936.798,423.11,936.798,426.747 M941.86,431.028h-1.948v-8.31c0.777-0.128,1.818-0.256,3.242-0.256
				c1.562,0,2.341,0.256,2.859,0.648c0.521,0.391,0.779,1.039,0.779,1.818c0,0.909-0.65,1.558-1.688,1.948v0.131
				c0.779,0.259,1.298,0.909,1.56,2.074c0.259,1.299,0.388,1.818,0.65,2.077h-2.077c-0.258-0.258-0.39-1.039-0.649-2.077
				c-0.133-0.909-0.652-1.296-1.688-1.296h-0.908v3.245h-0.133V431.028z M941.991,426.356h0.908c1.037,0,1.947-0.39,1.947-1.167
				c0-0.78-0.521-1.299-1.818-1.299c-0.519,0-0.906,0-1.037,0.13V426.356z"/>
		</g>
	</g>
</g>
</svg>
